solid OpenSCAD_Model
  facet normal 0 -1 0
    outer loop
      vertex -4 0 16.5
      vertex -4 0 0
      vertex 23.5 0 0
    endloop
  endfacet
  facet normal 0 -1 0
    outer loop
      vertex 23.5 0 16.5
      vertex -4 0 16.5
      vertex 23.5 0 0
    endloop
  endfacet
  facet normal 0 0 -1
    outer loop
      vertex -4 0 0
      vertex -4 1.5 0
      vertex 23.5 0 0
    endloop
  endfacet
  facet normal 0 0 -1
    outer loop
      vertex 23.5 0 0
      vertex -4 1.5 0
      vertex 22 1.5 0
    endloop
  endfacet
  facet normal 0 0 -1
    outer loop
      vertex 23.5 0 0
      vertex 22 1.5 0
      vertex 22 28 0
    endloop
  endfacet
  facet normal 0 0 -1
    outer loop
      vertex 22 28 0
      vertex 0 28 0
      vertex 0 29.5 0
    endloop
  endfacet
  facet normal 0 0 -1
    outer loop
      vertex 22 28 0
      vertex 0 29.5 0
      vertex 23.5 29.5 0
    endloop
  endfacet
  facet normal 0 0 -1
    outer loop
      vertex 22 28 0
      vertex 23.5 29.5 0
      vertex 23.5 0 0
    endloop
  endfacet
  facet normal -1 0 0
    outer loop
      vertex -4 0 0
      vertex -4 0 16.5
      vertex -4 1.5 0
    endloop
  endfacet
  facet normal -1 0 0
    outer loop
      vertex -4 1.5 0
      vertex -4 0 16.5
      vertex -4 1.5 16.5
    endloop
  endfacet
  facet normal 0 0 1
    outer loop
      vertex -4 1.5 16.5
      vertex -4 0 16.5
      vertex 23.5 0 16.5
    endloop
  endfacet
  facet normal 0 0 1
    outer loop
      vertex 22 1.5 16.5
      vertex -4 1.5 16.5
      vertex 23.5 0 16.5
    endloop
  endfacet
  facet normal 0 0 1
    outer loop
      vertex 0 29.5 16.5
      vertex 0 28 16.5
      vertex 23.5 29.5 16.5
    endloop
  endfacet
  facet normal 0 0 1
    outer loop
      vertex 0 28 16.5
      vertex 22 28 16.5
      vertex 23.5 29.5 16.5
    endloop
  endfacet
  facet normal 0 0 1
    outer loop
      vertex 23.5 29.5 16.5
      vertex 22 1.5 16.5
      vertex 23.5 0 16.5
    endloop
  endfacet
  facet normal 0 0 1
    outer loop
      vertex 22 28 16.5
      vertex 22 1.5 16.5
      vertex 23.5 29.5 16.5
    endloop
  endfacet
  facet normal 1 0 0
    outer loop
      vertex 23.5 0 16.5
      vertex 23.5 0 0
      vertex 23.5 29.5 0
    endloop
  endfacet
  facet normal 1 0 0
    outer loop
      vertex 23.5 29.5 16.5
      vertex 23.5 0 16.5
      vertex 23.5 29.5 0
    endloop
  endfacet
  facet normal 0 1 0
    outer loop
      vertex 10.4515 29.5 11.5605
      vertex 0 29.5 16.5
      vertex 23.5 29.5 16.5
    endloop
  endfacet
  facet normal 0 1 0
    outer loop
      vertex 0 29.5 0
      vertex 0 29.5 16.5
      vertex 4.5568 29.5 9.88925
    endloop
  endfacet
  facet normal 0 1 0
    outer loop
      vertex 0 29.5 0
      vertex 4.5568 29.5 9.88925
      vertex 4.5568 29.5 8.11075
    endloop
  endfacet
  facet normal 0 1 0
    outer loop
      vertex 0 29.5 0
      vertex 4.5568 29.5 8.11075
      vertex 5.7 29.5 6.74833
    endloop
  endfacet
  facet normal 0 1 0
    outer loop
      vertex 0 29.5 0
      vertex 5.7 29.5 6.74833
      vertex 23.5 29.5 0
    endloop
  endfacet
  facet normal 0 1 0
    outer loop
      vertex 5.7 29.5 6.74833
      vertex 7.45148 29.5 6.4395
      vertex 23.5 29.5 0
    endloop
  endfacet
  facet normal 0 1 0
    outer loop
      vertex 11.9917 29.5 7.32875
      vertex 23.5 29.5 0
      vertex 10.4515 29.5 6.4395
    endloop
  endfacet
  facet normal 0 1 0
    outer loop
      vertex 12.6 29.5 9
      vertex 23.5 29.5 0
      vertex 11.9917 29.5 7.32875
    endloop
  endfacet
  facet normal 0 1 0
    outer loop
      vertex 5.7 29.5 11.2517
      vertex 0 29.5 16.5
      vertex 7.45148 29.5 11.5605
    endloop
  endfacet
  facet normal 0 1 0
    outer loop
      vertex 23.5 29.5 0
      vertex 12.6 29.5 9
      vertex 23.5 29.5 16.5
    endloop
  endfacet
  facet normal 0 1 0
    outer loop
      vertex 12.6 29.5 9
      vertex 11.9917 29.5 10.6712
      vertex 23.5 29.5 16.5
    endloop
  endfacet
  facet normal 0 1 0
    outer loop
      vertex 11.9917 29.5 10.6712
      vertex 10.4515 29.5 11.5605
      vertex 23.5 29.5 16.5
    endloop
  endfacet
  facet normal 0 1 0
    outer loop
      vertex 7.45148 29.5 11.5605
      vertex 0 29.5 16.5
      vertex 10.4515 29.5 11.5605
    endloop
  endfacet
  facet normal 0 1 0
    outer loop
      vertex 4.5568 29.5 9.88925
      vertex 0 29.5 16.5
      vertex 5.7 29.5 11.2517
    endloop
  endfacet
  facet normal 0 1 0
    outer loop
      vertex 10.4515 29.5 6.4395
      vertex 23.5 29.5 0
      vertex 7.45148 29.5 6.4395
    endloop
  endfacet
  facet normal -1 0 0
    outer loop
      vertex 0 28 0
      vertex 0 28 16.5
      vertex 0 29.5 0
    endloop
  endfacet
  facet normal -1 0 0
    outer loop
      vertex 0 29.5 0
      vertex 0 28 16.5
      vertex 0 29.5 16.5
    endloop
  endfacet
  facet normal 0 -1 0
    outer loop
      vertex 7.45148 28 6.4395
      vertex 0 28 0
      vertex 22 28 0
    endloop
  endfacet
  facet normal 0 -1 0
    outer loop
      vertex 0 28 16.5
      vertex 0 28 0
      vertex 4.5568 28 8.11075
    endloop
  endfacet
  facet normal 0 -1 0
    outer loop
      vertex 10.4515 28 6.4395
      vertex 7.45148 28 6.4395
      vertex 22 28 0
    endloop
  endfacet
  facet normal 0 -1 0
    outer loop
      vertex 0 28 16.5
      vertex 4.5568 28 8.11075
      vertex 4.5568 28 9.88925
    endloop
  endfacet
  facet normal 0 -1 0
    outer loop
      vertex 0 28 16.5
      vertex 4.5568 28 9.88925
      vertex 5.7 28 11.2517
    endloop
  endfacet
  facet normal 0 -1 0
    outer loop
      vertex 22 28 16.5
      vertex 0 28 16.5
      vertex 7.45148 28 11.5605
    endloop
  endfacet
  facet normal 0 -1 0
    outer loop
      vertex 12.6 28 9
      vertex 11.9917 28 7.32875
      vertex 22 28 0
    endloop
  endfacet
  facet normal 0 -1 0
    outer loop
      vertex 22 28 16.5
      vertex 7.45148 28 11.5605
      vertex 10.4515 28 11.5605
    endloop
  endfacet
  facet normal 0 -1 0
    outer loop
      vertex 22 28 16.5
      vertex 11.9917 28 10.6712
      vertex 22 28 0
    endloop
  endfacet
  facet normal 0 -1 0
    outer loop
      vertex 22 28 16.5
      vertex 10.4515 28 11.5605
      vertex 11.9917 28 10.6712
    endloop
  endfacet
  facet normal 0 -1 0
    outer loop
      vertex 11.9917 28 10.6712
      vertex 12.6 28 9
      vertex 22 28 0
    endloop
  endfacet
  facet normal 0 -1 0
    outer loop
      vertex 11.9917 28 7.32875
      vertex 10.4515 28 6.4395
      vertex 22 28 0
    endloop
  endfacet
  facet normal 0 -1 0
    outer loop
      vertex 5.7 28 6.74833
      vertex 0 28 0
      vertex 7.45148 28 6.4395
    endloop
  endfacet
  facet normal 0 -1 0
    outer loop
      vertex 4.5568 28 8.11075
      vertex 0 28 0
      vertex 5.7 28 6.74833
    endloop
  endfacet
  facet normal 0 -1 0
    outer loop
      vertex 5.7 28 11.2517
      vertex 7.45148 28 11.5605
      vertex 0 28 16.5
    endloop
  endfacet
  facet normal -1 0 0
    outer loop
      vertex 22 1.5 0
      vertex 22 1.5 16.5
      vertex 22 28 0
    endloop
  endfacet
  facet normal -1 0 0
    outer loop
      vertex 22 28 0
      vertex 22 1.5 16.5
      vertex 22 28 16.5
    endloop
  endfacet
  facet normal 0 1 0
    outer loop
      vertex -4 1.5 0
      vertex -4 1.5 16.5
      vertex 22 1.5 0
    endloop
  endfacet
  facet normal 0 1 0
    outer loop
      vertex 22 1.5 0
      vertex -4 1.5 16.5
      vertex 22 1.5 16.5
    endloop
  endfacet
  facet normal 0.766044 0 -0.642788
    outer loop
      vertex 4.5568 29.5 9.88925
      vertex 5.7 29.5 11.2517
      vertex 5.7 28 11.2517
    endloop
  endfacet
  facet normal 0.766044 0 -0.642788
    outer loop
      vertex 4.5568 28 9.88925
      vertex 4.5568 29.5 9.88925
      vertex 5.7 28 11.2517
    endloop
  endfacet
  facet normal 1 0 0
    outer loop
      vertex 4.5568 29.5 8.11075
      vertex 4.5568 29.5 9.88925
      vertex 4.5568 28 9.88925
    endloop
  endfacet
  facet normal 1 0 0
    outer loop
      vertex 4.5568 28 8.11075
      vertex 4.5568 29.5 8.11075
      vertex 4.5568 28 9.88925
    endloop
  endfacet
  facet normal 0.173648 0 -0.984808
    outer loop
      vertex 7.45148 29.5 11.5605
      vertex 7.45148 28 11.5605
      vertex 5.7 29.5 11.2517
    endloop
  endfacet
  facet normal 0.173648 0 -0.984808
    outer loop
      vertex 5.7 29.5 11.2517
      vertex 7.45148 28 11.5605
      vertex 5.7 28 11.2517
    endloop
  endfacet
  facet normal 0 0 -1
    outer loop
      vertex 10.4515 29.5 11.5605
      vertex 10.4515 28 11.5605
      vertex 7.45148 29.5 11.5605
    endloop
  endfacet
  facet normal 0 0 -1
    outer loop
      vertex 7.45148 29.5 11.5605
      vertex 10.4515 28 11.5605
      vertex 7.45148 28 11.5605
    endloop
  endfacet
  facet normal -0.5 0 -0.866026
    outer loop
      vertex 11.9917 29.5 10.6712
      vertex 11.9917 28 10.6712
      vertex 10.4515 29.5 11.5605
    endloop
  endfacet
  facet normal -0.5 0 -0.866026
    outer loop
      vertex 10.4515 29.5 11.5605
      vertex 11.9917 28 10.6712
      vertex 10.4515 28 11.5605
    endloop
  endfacet
  facet normal -0.939693 0 -0.34202
    outer loop
      vertex 12.6 29.5 9
      vertex 12.6 28 9
      vertex 11.9917 29.5 10.6712
    endloop
  endfacet
  facet normal -0.939693 0 -0.34202
    outer loop
      vertex 11.9917 29.5 10.6712
      vertex 12.6 28 9
      vertex 11.9917 28 10.6712
    endloop
  endfacet
  facet normal -0.939693 0 0.34202
    outer loop
      vertex 12.6 29.5 9
      vertex 11.9917 29.5 7.32875
      vertex 12.6 28 9
    endloop
  endfacet
  facet normal -0.939693 0 0.34202
    outer loop
      vertex 12.6 28 9
      vertex 11.9917 29.5 7.32875
      vertex 11.9917 28 7.32875
    endloop
  endfacet
  facet normal -0.5 0 0.866026
    outer loop
      vertex 11.9917 28 7.32875
      vertex 11.9917 29.5 7.32875
      vertex 10.4515 29.5 6.4395
    endloop
  endfacet
  facet normal -0.5 0 0.866026
    outer loop
      vertex 10.4515 28 6.4395
      vertex 11.9917 28 7.32875
      vertex 10.4515 29.5 6.4395
    endloop
  endfacet
  facet normal 0 0 1
    outer loop
      vertex 10.4515 28 6.4395
      vertex 10.4515 29.5 6.4395
      vertex 7.45148 29.5 6.4395
    endloop
  endfacet
  facet normal 0 0 1
    outer loop
      vertex 7.45148 28 6.4395
      vertex 10.4515 28 6.4395
      vertex 7.45148 29.5 6.4395
    endloop
  endfacet
  facet normal 0.173648 0 0.984808
    outer loop
      vertex 7.45148 28 6.4395
      vertex 7.45148 29.5 6.4395
      vertex 5.7 29.5 6.74833
    endloop
  endfacet
  facet normal 0.173648 0 0.984808
    outer loop
      vertex 5.7 28 6.74833
      vertex 7.45148 28 6.4395
      vertex 5.7 29.5 6.74833
    endloop
  endfacet
  facet normal 0.766044 0 0.642788
    outer loop
      vertex 5.7 28 6.74833
      vertex 5.7 29.5 6.74833
      vertex 4.5568 29.5 8.11075
    endloop
  endfacet
  facet normal 0.766044 0 0.642788
    outer loop
      vertex 4.5568 28 8.11075
      vertex 5.7 28 6.74833
      vertex 4.5568 29.5 8.11075
    endloop
  endfacet
endsolid OpenSCAD_Model
